<?xml version="1.0" encoding="UTF-8"?>
<svg id="Layer_1" data-name="Layer 1" xmlns="http://www.w3.org/2000/svg" viewBox="0 0 300 72">
  <defs>
    <style>
      .cls-1, .cls-2 {
        fill: #fff;
      }

      .cls-3, .cls-4 {
        fill: #806a38;
      }

      .cls-5 {
        fill: #c7eafb;
      }

      .cls-4, .cls-2, .cls-6 {
        fill-rule: evenodd;
      }
    </style>
  </defs>
  <g>
    <path d="m153.46,1.21s-1.03-1.07-3.04-1.18c-.22-.02-2.17.02-3.48,1.05-.24.24-21,21.11-21,21.11,0,0-.98,1.05-.92,1.86v44.93s-.22,2.69,2.71,3.04h44.21s3.06-.39,3-2.98c-.02-.96,0-44.67,0-44.67,0,0,.11-1.4-.74-2.12L153.46,1.21h0Z"/>
    <path class="cls-5" d="m149.28,5.06s.79-.7,1.62.07c.89.82,18.86,18.75,18.86,18.75,0,0,.66.59.72,1.51v40.84s.02,1.23-1.16,1.29h-38.83s-.83.13-.96-1.16l.07-40.23s-.04-1.14.74-1.93c.79-.79,18.94-19.14,18.94-19.14h0Z"/>
    <path class="cls-6" d="m149.85,19.72s.5-1.16,1.95-1.05c0,0,1.36.15,2.41.5,0,0,1.05.31,2.1.26.87.83,6.3,6.3,6.3,6.3,0,0,.02.33-.31.26s-7.57-1.97-7.57-1.97c0,0-3.19-.98-4.44,2.03h-.83s-.9-2.91-4.68-1.9c-1.09.29-7.29,2.21-7.29,2.21,0,0-.5.04-.24-.44l6.37-6.5s2.12-.29,2.87-.46c.52-.13,2.36-.85,3.37.75h0Z"/>
    <path d="m150.92,9.43c.04.05.1.13.15.21.09.16.17.39.01.55h-.06c-.1-.05-.26-.12-.4-.13-.14-.01-.25.03-.29.18-.01.43-.04,2.42,0,2.76.05.06.13.16.17.28.04.13.02.29-.16.4-.18.05-.72.16-1.02-.03-.09-.07-.28-.22.07-.59.03-.37.03-2.49-.01-2.73-.07-.09-.38-.43-.85-.01l-.07.06-.02-.09c-.01-.07-.05-.23-.04-.39,0-.11.03-.24.1-.34-.18.06-.35.17-.35.17l-.05.04s-.03-.1-.04-.16c0-.06-.02-.14,0-.24.02-.17.09-.36.29-.52-.19-.03-.27-.06-.27-.06-.02-.04-.17-.48.57-.76-.15-.18-.17-.25-.17-.26,0-.05.02-.34,1.27-.66.01,0,.7-.12,1.43.74l.04.05-.06.03c-.11.06-.18.11-.22.15.13.03.37.12.61.47l.05.07h-.09c-.13.02-.22.03-.28.04.05.05.12.12.19.22.12.19.22.46.09.79l-.03.07-.05-.05c-.18-.16-.33-.22-.43-.24-.02,0-.04,0-.05,0h0Z"/>
    <path class="cls-6" d="m146.42,13.92s2.11-1.25,5.12,2.52c.07-.12.31-.77.77-.39.13.13.36.47-.31.66.01.13.2.45.6.2.15-.16.61-.66.89.06.03.18.2.58-.49.79-.12.03-.86.28-1.59-.44-.2.23-.55.55-.9.07-.01-.1-.09-.5.51-.47.07,0,.25-.07.03-.26-.22-.19-1.85-2.45-4.62-2.75h0Z"/>
    <path class="cls-2" d="m150.14,20.07s.83-1.42,3.26-.68c0,0,1.82.46,2.69.5.61.55,5.03,5.01,5.03,5.01l-6.87-1.71s-2.14-.79-4.11,1.51v-4.64h0Z"/>
    <path class="cls-2" d="m149.7,20.22s-.61-1.55-2.98-.79c0,0-1.51.35-3,.46-.39.42-5.08,5.32-5.08,5.32l7.5-2.1s1.97-.39,3.54,1.64v-4.53h0Z"/>
    <path class="cls-6" d="m153.53,13.92s-2.11-1.25-5.12,2.52c-.07-.12-.31-.77-.77-.39-.13.13-.37.47.31.66-.01.13-.2.45-.6.2-.15-.16-.61-.66-.89.06-.03.18-.2.58.49.79.12.03.86.28,1.59-.44.2.23.55.55.9.07.01-.1.09-.5-.51-.47-.07,0-.25-.07-.03-.26.22-.19,1.86-2.45,4.63-2.75h0Z"/>
    <path class="cls-3" d="m149.46,13.43c.02-.06.06-.12.13-.2l.05-.05v-.07c.04-.32.04-2.61-.01-2.84v-.05c-.09-.1-.44-.52-.96-.29,0-.14.05-.24.12-.3l.58-.46-.73.09c-.11.01-.22.05-.32.1.02-.12.09-.26.26-.37l.48-.29-.55-.09c-.08-.01-.15-.02-.2-.03.03-.08.12-.22.48-.34l.29-.1-.2-.23c-.06-.07-.1-.11-.12-.15.14-.1.42-.25,1.03-.4,0,0,.03,0,.07,0,.06,0,.14,0,.25.04.18.05.43.17.7.44-.03.02-.05.04-.07.06-.03.03-.05.06-.07.08l-.03.06-.04.09-.08.19s.32,0,.33,0c.02,0,.05,0,.1.03.03.01.08.04.13.08-.14.03-.46.12-.46.12l.37.25s.27.19.31.49c-.09-.05-.18-.08-.25-.09-.07-.02-.14-.02-.18-.02-.03,0-.12.03-.2.05-.08.02-.23.07-.23.07l.25.24s.18.2.23.34c-.08-.03-.17-.05-.25-.06-.22-.02-.48.06-.56.38v.04c-.02.41-.05,2.51,0,2.83v.06s.05.04.05.04c.04.05.1.13.13.2.01.04.01.06-.02.09-.09.02-.22.05-.37.05-.17,0-.31-.01-.39-.06h-.02Z"/>
    <path class="cls-3" d="m147.53,13.93c.09,0,.19.02.29.03.84.15,2.08.74,3.56,2.6l.18.23.16-.25s.05-.1.09-.17c.04-.07.08-.13.12-.18.06-.07.12-.1.25,0,.02.02.05.05.06.08.02.03.02.04.02.05,0,.02-.03.09-.3.17l-.17.05.02.18c.02.2.33.73.92.36.07-.06.12-.12.18-.17s.12-.09.17-.1c.03-.01.06-.01.09,0,.03.02.09.07.14.21,0,.04.02.09.03.14,0,.05,0,.09,0,.13-.01.05-.07.17-.38.26-.03,0-.09.02-.17.04-.08.01-.19.02-.32.01-.25-.02-.57-.12-.89-.44l-.16-.15-.14.17c-.1.12-.21.21-.3.24-.05.02-.13.03-.25-.12v-.04s0-.05.01-.07c0,0,.01-.03.05-.04.04-.02.11-.03.24-.03.07,0,.22-.05.3-.15.1-.14.06-.31-.13-.48-.01-.01-.05-.05-.13-.14-.07-.08-.17-.19-.28-.31-.23-.25-.55-.57-.95-.88-.59-.46-1.35-.94-2.29-1.23h0Z"/>
    <path class="cls-3" d="m150.13,15.17c-.4.32-.72.64-.95.88-.11.12-.21.23-.28.31-.08.09-.11.13-.13.14-.19.17-.23.34-.13.48.08.1.23.15.3.15.13,0,.2,0,.24.03.04.02.05.03.05.04,0,.01.01.04.01.07v.04c-.12.14-.2.13-.25.12-.1-.03-.2-.13-.3-.24l-.14-.17-.16.15c-.33.32-.65.42-.9.44-.13,0-.23,0-.32-.01-.09-.01-.15-.03-.18-.04-.3-.09-.36-.2-.37-.26,0-.04,0-.08,0-.13,0-.05.02-.1.03-.14.06-.14.11-.2.14-.21.03-.02.05-.01.09,0,.11.03.23.15.31.24.62.4.94-.11.96-.32l.02-.18-.17-.05c-.27-.08-.3-.15-.3-.17,0-.01,0-.03.02-.06.01-.03.04-.05.06-.08.13-.1.18-.07.24,0,.04.05.09.11.12.18.04.08.07.14.09.17l.16.25.18-.23c1.48-1.86,2.72-2.45,3.56-2.6.1-.02.2-.03.29-.03-.93.28-1.7.76-2.29,1.23h0Z"/>
    <path class="cls-4" d="m148.91,4.18s.98-1.14,2.14-.04c1.16,1.09,19.65,19.49,19.65,19.49,0,0,.48.42.5,1.38.02.96,0,41.76,0,41.76,0,0,0,1.44-1.44,1.47-1.44.02-39.66,0-39.66,0,0,0-1.23,0-1.23-1.25V25.34s-.18-.52.72-1.44c.9-.92,19.32-19.71,19.32-19.71h0Zm-1.62-1.14s1.18-1.36,2.82-1.4c0,0,1.38-.18,2.73,1.23,1.36,1.4,19.45,19.62,19.45,19.62,0,0,.98.9,1.03,2.17.04,1.27,0,43.51,0,43.51,0,0,.02,2.06-1.84,2.08-1.86.02-42.68,0-42.68,0,0,0-2.25.22-2.25-2.25s.04-42.68.04-42.68c0,0-.2-1.09,1.07-2.41,1.27-1.31,19.62-19.87,19.62-19.87h0Z"/>
  </g>
  <g>
    <path d="m131.7,65.23v1.18h-.22v-1.18h.22Z"/>
    <path d="m131.93,65.53h.19v.1c.07-.09.16-.13.27-.13s.21.04.27.18c.06-.12.17-.18.3-.18.17,0,.31.1.31.44v.47h-.2v-.47c0-.18-.07-.25-.17-.25s-.19.08-.19.24v.48h-.2v-.48c0-.17-.07-.24-.17-.24-.12,0-.19.09-.19.25v.47h-.2v-.88h0Z"/>
    <path d="m133.85,65.51c.13,0,.24.05.3.15v-.12h.2v.88h-.19v-.12c-.08.09-.19.15-.31.15-.25,0-.44-.2-.44-.47s.19-.47.44-.47Zm.04.74c.13,0,.25-.08.26-.28,0-.19-.12-.28-.26-.28-.15,0-.28.11-.28.28s.12.28.28.28Z"/>
    <path d="m134.57,65.53h.19v.1c.07-.09.16-.13.27-.13s.21.04.27.18c.06-.12.17-.18.3-.18.17,0,.31.1.31.44v.47h-.2v-.47c0-.18-.07-.25-.17-.25s-.19.08-.19.24v.48h-.2v-.48c0-.17-.07-.24-.17-.24-.12,0-.19.09-.19.25v.47h-.2v-.88h0Z"/>
    <path d="m137.79,66.41h-.22v-.67l-.39.65h0l-.39-.65v.67h-.22v-1.19h.08l.53.83.53-.83h.08v1.19Z"/>
    <path d="m137.96,65.97c0-.26.21-.47.48-.47s.48.21.48.47-.21.47-.48.47-.48-.21-.48-.47Zm.76,0c0-.15-.12-.28-.28-.28s-.28.12-.28.28.12.28.28.28c.15,0,.28-.12.28-.28Z"/>
    <path d="m139.88,65.93v.47h-.2v-.47c0-.17-.08-.24-.19-.24-.12,0-.2.08-.2.24v.47h-.2v-1.2h.2v.43c.06-.08.16-.13.28-.13.17,0,.33.09.33.43Z"/>
    <path d="m140.48,65.51c.13,0,.24.05.3.15v-.12h.2v.88h-.19v-.12c-.08.09-.19.15-.31.15-.25,0-.44-.2-.44-.47s.19-.47.44-.47Zm.04.74c.13,0,.25-.08.26-.28,0-.19-.12-.28-.26-.28-.15,0-.28.11-.28.28s.12.28.28.28Z"/>
    <path d="m141.19,65.53h.19v.1c.07-.09.16-.13.27-.13s.21.04.27.18c.06-.12.17-.18.3-.18.17,0,.31.1.31.44v.47h-.2v-.47c0-.18-.07-.25-.17-.25s-.19.08-.19.24v.48h-.2v-.48c0-.17-.07-.24-.17-.24-.12,0-.19.09-.19.25v.47h-.2v-.88h0Z"/>
    <path d="m142.74,65.53h.19v.1c.07-.09.16-.13.27-.13s.21.04.27.18c.06-.12.17-.18.3-.18.17,0,.31.1.31.44v.47h-.2v-.47c0-.18-.07-.25-.17-.25s-.19.08-.19.24v.48h-.2v-.48c0-.17-.07-.24-.17-.24-.12,0-.19.09-.19.25v.47h-.2v-.88h0Z"/>
    <path d="m144.67,65.51c.13,0,.24.05.3.15v-.12h.2v.88h-.19v-.12c-.08.09-.19.15-.31.15-.25,0-.44-.2-.44-.47s.19-.47.44-.47Zm.04.74c.13,0,.25-.08.26-.28,0-.19-.12-.28-.26-.28-.15,0-.28.11-.28.28,0,.16.12.28.28.28Z"/>
    <path d="m145.79,65.51c.12,0,.23.05.3.14v-.44h.2v1.2h-.19v-.12c-.08.09-.19.15-.31.15-.25,0-.44-.2-.44-.47s.19-.46.44-.46Zm.04.74c.1,0,.26-.09.26-.27,0-.21-.13-.28-.26-.28-.15,0-.28.11-.28.28,0,.16.12.28.28.28Z"/>
    <path d="m147.15,65.23v1.18h-.22v-1.18h.22Z"/>
    <path d="m147.38,65.21h.2v.44c.07-.09.18-.14.3-.14.24,0,.44.2.44.47s-.19.47-.44.47c-.13,0-.24-.05-.3-.15v.12h-.2v-1.2Zm.46,1.04c.15,0,.27-.12.27-.28s-.13-.28-.28-.28c-.12,0-.26.08-.26.28,0,.19.15.27.26.27Z"/>
    <path d="m148.47,65.53h.19v.11c.07-.09.17-.13.29-.13.17,0,.33.09.33.43v.47h-.2v-.47c0-.17-.08-.24-.19-.24-.12,0-.2.08-.2.24v.47h-.2v-.88h0Z"/>
    <path d="m149.88,66.2l.13-.13c.05.09.16.15.28.15s.21-.06.21-.14c0-.1-.15-.16-.28-.21-.15-.06-.29-.15-.29-.32,0-.19.18-.33.39-.33.18,0,.31.1.35.21l-.13.12c-.04-.08-.14-.12-.22-.12-.1,0-.18.06-.18.14,0,.09.11.12.25.17.18.07.33.17.33.35,0,.21-.2.35-.43.35-.2,0-.36-.1-.41-.22Z"/>
    <path d="m151.26,65.51c.13,0,.24.05.3.15v-.12h.2v.88h-.19v-.12c-.08.09-.19.15-.31.15-.25,0-.44-.2-.44-.47s.19-.47.44-.47Zm.04.74c.13,0,.25-.08.26-.28,0-.19-.12-.28-.26-.28-.15,0-.28.11-.28.28,0,.16.12.28.28.28Z"/>
    <path d="m151.97,66.02v-.49h.2v.49c0,.14.08.22.18.22.1,0,.19-.08.19-.22v-.49h.2v.49c0,.24-.17.4-.39.4s-.39-.16-.39-.4Z"/>
    <path d="m153.37,65.51c.12,0,.23.05.3.14v-.44h.2v1.2h-.19v-.12c-.08.09-.19.15-.31.15-.25,0-.44-.2-.44-.47s.19-.46.44-.46Zm.04.74c.1,0,.26-.09.26-.27,0-.21-.13-.28-.26-.28-.15,0-.28.11-.28.28s.12.28.28.28Z"/>
    <path d="m154.74,65.23v1.18h-.22v-1.18h.22Z"/>
    <path d="m154.91,66.27l.1-.12c.05.07.15.12.26.12.07,0,.14-.03.14-.1s-.1-.1-.21-.14c-.12-.04-.25-.12-.25-.26,0-.16.15-.27.33-.27.13,0,.26.06.3.15l-.11.11c-.04-.06-.12-.09-.2-.09s-.13.03-.13.09c0,.06.08.09.21.13.14.05.26.12.26.26,0,.17-.16.28-.36.28-.15,0-.29-.07-.34-.17Z"/>
    <path d="m155.97,65.21v1.2h-.2v-1.2h.2Z"/>
    <path d="m156.56,65.51c.13,0,.24.05.3.15v-.12h.2v.88h-.19v-.12c-.08.09-.19.15-.31.15-.25,0-.44-.2-.44-.47s.19-.47.44-.47Zm.04.74c.13,0,.25-.08.26-.28,0-.19-.12-.28-.26-.28-.15,0-.28.11-.28.28s.12.28.28.28Z"/>
    <path d="m157.28,65.53h.19v.1c.07-.09.16-.13.27-.13s.21.04.27.18c.06-.12.17-.18.3-.18.17,0,.31.1.31.44v.47h-.2v-.47c0-.18-.07-.25-.17-.25s-.19.08-.19.24v.48h-.2v-.48c0-.17-.07-.24-.17-.24-.12,0-.19.09-.19.25v.47h-.2v-.88h0Z"/>
    <path d="m158.82,65.31c0-.06.05-.11.12-.11s.12.05.12.11-.05.11-.12.11c-.07,0-.12-.05-.12-.11Zm.22.22v.88h-.2v-.88h.2Z"/>
    <path d="m159.22,65.97c0-.28.23-.47.48-.47.11,0,.22.04.3.1l-.1.15s-.12-.07-.2-.07c-.15,0-.28.12-.28.29s.13.29.28.29c.08,0,.16-.03.2-.07l.1.14c-.08.07-.2.11-.32.11-.24,0-.48-.18-.48-.47Z"/>
    <path d="m160.6,65.96v-.73h.22v.73c0,.15.11.26.25.26s.25-.11.25-.26v-.73h.22v.73c0,.27-.2.47-.46.47s-.46-.2-.46-.47Z"/>
    <path d="m161.74,65.53h.19v.11c.07-.09.17-.13.29-.13.17,0,.33.09.33.43v.47h-.2v-.47c0-.17-.08-.24-.19-.24-.12,0-.2.08-.2.24v.47h-.2v-.88h0Z"/>
    <path d="m162.76,65.31c0-.06.05-.11.12-.11s.12.05.12.11-.05.11-.12.11-.12-.05-.12-.11Zm.22.22v.88h-.2v-.88h.2Z"/>
    <path d="m163.63,66.43h-.09l-.4-.9h.23l.22.54.22-.54h.23l-.4.9Z"/>
    <path d="m164.51,65.51c.26,0,.42.2.42.43,0,.04,0,.08-.02.11h-.66c.03.13.13.22.26.22.07,0,.15-.03.21-.09l.15.1c-.09.12-.25.16-.36.16-.26,0-.46-.2-.46-.47,0-.27.2-.46.46-.46Zm.23.4c0-.13-.09-.24-.23-.24s-.24.1-.26.24h.49Z"/>
    <path d="m165.1,65.53h.19v.15c.1-.13.23-.18.35-.18l-.03.21s-.02,0-.04,0c-.13,0-.27.07-.27.33v.37h-.2v-.88Z"/>
    <path d="m165.7,66.27l.1-.12c.05.07.15.12.26.12.07,0,.14-.03.14-.1s-.1-.1-.21-.14c-.12-.04-.25-.12-.25-.26,0-.16.15-.27.33-.27.13,0,.26.06.3.15l-.11.11c-.04-.06-.12-.09-.2-.09s-.13.03-.13.09c0,.06.08.09.21.13.14.05.26.12.26.26,0,.17-.16.28-.36.28-.16,0-.29-.07-.34-.17Z"/>
    <path d="m166.55,65.31c0-.06.05-.11.12-.11s.12.05.12.11-.05.11-.12.11c-.07,0-.12-.05-.12-.11Zm.22.22v.88h-.2v-.88h.2Z"/>
    <path d="m167.05,66.13v-.41h-.12v-.17h.03c.07,0,.11-.04.11-.11v-.08h.19v.17h.22v.18h-.22v.4c0,.09.05.14.12.14.03,0,.07-.01.1-.02v.16s-.11.03-.17.03c-.19,0-.26-.13-.26-.3Z"/>
    <path d="m167.95,66.74h-.21l.17-.38-.36-.82h.23l.23.6.26-.6h.22l-.53,1.2Z"/>
  </g>
  <g>
    <path class="cls-6" d="m168.23,59.23l-2.14,1.03s.29-1.29-.42-1.81c0,0-.32.23.08.57.12.15.48.65-.16,1.78.25-.11,2.2-1.06,2.47-1.17.1-.09.19-.16.17-.39h0Z"/>
    <path class="cls-6" d="m167.58,58.75s.39-.11.1-.41c-.12-.03-.25.1-.36.61-.16-.22-.43-.6-.6-.06.04.03.06.13.23.08.12.12.32.32.36.5.06-.21.15-.7.26-.71h0Z"/>
    <path class="cls-6" d="m167.54,60.19s-.49.69-.11,1.06c.1.03.31.06.37-.14.03-.12-.04-.29-.2-.19-.07-.03-.11-.19-.05-.73h0Z"/>
    <polygon class="cls-6" points="167.2 63.7 167.43 63.15 167.93 63.37 167.72 63.88 167.2 63.7"/>
    <path class="cls-6" d="m163.76,60.17s.18-.57.4-.49c.09.04.23.31-.08.41-.09.03-.25.17-.29.7-.07-.16-.17-.48-.33-.47-.09,0-.3-.18-.05-.38.12-.03.23,0,.35.24h0Z"/>
    <path class="cls-6" d="m162.46,60.58s-.38.2-.28-.16c.09-.22.16-.48.16-.48,0,0-.48.32-.27.98.07.09.41.12.38-.33h0Z"/>
    <path class="cls-6" d="m163.93,58.55l-2.69,1.1s-.47.45-.14.74c.1.03.31,0,.44-.21-.12-.02-.38-.15-.1-.29.28-.14,2.33-.99,2.33-.99,0,0,.22-.1.16-.35h0Z"/>
    <path class="cls-6" d="m162.11,58.74s.21-.52.46-.32c.06.07.04.35-.21.3-.07.06-.22.25-.27.52-.09-.1-.19-.37-.3-.41-.1.01-.15.01-.2.07-.04-.06-.14-.26.13-.45.13,0,.28.03.39.28h0Z"/>
    <path class="cls-6" d="m160.24,58.96s.22-.11.31-.11c-.05.09-.1.23-.22.29.16.02.41.03.59-.39.01-.12.08-.33-.32-.28-.17.04-.45.18-.35.49h0Z"/>
    <polygon class="cls-6" points="159.91 60.47 160.14 60.01 160.49 60.27 160.3 60.62 160.59 60.9 160.4 61.41 160.03 61.17 160.14 60.75 159.91 60.47"/>
    <path class="cls-6" d="m159.64,59.29s-.27-.67-.28-1.01c-.12.31-.28.54-.39.67,0,.18.24,2.31.33,2.8.04.23.11.98.06,1.15.09-.19.37-.28.22-1.41-.07-.67-.2-2.03-.17-2.2.1,0,.16.02.23,0h0Z"/>
    <path class="cls-6" d="m158.45,59.12s-.3-.34-.41-.94c-.12.36-.21.57-.28.68.04.22.43,2.18.49,2.59.03.22.16.48-.15.93-.07-.18-.2-.85-.43-1.11-.23-.27-.66-.87-1.96-2,.23-.04.31-.1.31-.1,0,0-.38-.29-.8-.62-.08.13-.33.55.49,1.32.2.23.72.68,1.46,1.37.13.15.74.93.73,1.29-.07.13.06.2-1.72,1.27.29-.04,1.65-.18,2.14-1.4.09-.17.31-.54.22-1.38-.07-.39-.3-1.93-.3-1.93,0,0,.15.03.24.03h0Z"/>
    <path class="cls-6" d="m157.39,59.84s-.27.36-.09.7c.06.06.19.06.26-.23-.1.01-.2-.01-.17-.47h0Z"/>
    <path class="cls-6" d="m156.87,59.29s-.03-.28.12-.65c-.15.1-.38.27-.24,1,.01.04.22.15.41-.13.05-.09.05-.15-.05-.28-.09.04-.16.09-.24.06h0Z"/>
    <path class="cls-6" d="m158.12,63.29s.15-.13.06-.22c-.06,0-.15-.05-.26.17-.01.1-.03.25.11.28-.05.1-.12.3.07.16.12-.11.31-.32.38-.39,0-.06-.1-.12-.2.01-.06.06-.16.19-.16-.01h0Z"/>
    <path class="cls-6" d="m155.24,60.11s.11.38-.22.36c-.09-.06-.33-.4.14-1.02-.05.22-.24.91.08.66h0Z"/>
    <path class="cls-6" d="m154.17,63.1s-.28.25-.21.82c.03.09.28.25.34-.11.02-.15,0-.15-.11-.18-.03-.07-.08-.34,0-.53h0Z"/>
    <path class="cls-6" d="m153.4,58.75s.38-.2.05-.33c-.12.01-.22.11-.32.39-.15-.12-.52-.41-.51.2.09-.04.26-.14.36.03.1.18.16.39.16.39.06-.23.11-.63.27-.68h0Z"/>
    <path class="cls-6" d="m152.49,58.29s-1.3.54-1.74.73c-.15.1-.5.3-.43.72.09.04.36.1.29-.29.13-.11.12-.22,1.73-.8.13-.23.15-.36.15-.36h0Z"/>
    <path class="cls-6" d="m151.65,59.47s.09-.26.13-.11c.04.15.15.96-.21.81-.12.04-.4.2-.48-.24,0,0-.13-.41.08-.44.03.09.13.48.22.31.04-.09.08-.28.08-.38,0,.01.06-.01.09.18.01.16.04.22.12.1.02-.09-.01-.24-.01-.24h0Z"/>
    <path class="cls-6" d="m149.71,60.5s-.64,1.03-1.24-.05c-.12.2-.22.38-.09.73.11.32.32.51.17.69s-1.24,1.39-2.59,1.27c0,0-1.05.08-.75-1.25.09-.23.1-.26.1-.26,0,0-.47.26-.49,1.09.01.18.18,1.09,1.38.99.13-.01,1.84-.28,2.57-1.68.01-.06.12-.36.11-.55.15,0,.88,0,.84-.97h0Z"/>
    <polygon class="cls-6" points="149.22 61.77 149.63 61.91 149.48 62.47 149.08 62.27 149.22 61.77"/>
    <path class="cls-6" d="m150.21,63.36s.22-.01.16.15c-.04.12-.12.26-.28.06-.01-.1-.01-.42.22-.65-.03.13-.13.44-.11.45h0Z"/>
    <path class="cls-6" d="m148.95,59.57s.13-.44.25-.48c.1-.01.19.08.14.22-.04.1-.09.1-.16.09-.06.09-.18.32-.21.64-.09-.19-.09-.25-.26-.32-.09,0-.23-.08-.13-.31.07-.1.16-.14.23-.01,0,.1.04.16.13.18h0Z"/>
    <path class="cls-6" d="m148.11,59.06s.18-.2.35-.2c-.01.07-.06.25-.21.36.19-.07.44.05.59-.72-.16-.05-.29-.16-.76.18-.03.14-.05.26.02.38h0Z"/>
    <path class="cls-6" d="m147.13,59.28s-.32-.35.11-.66c.13-.01.41,0,.24.44-.09.17-.56.99-1.69,1.17.24-.13,1.32-.78,1.34-.95h0Z"/>
    <path class="cls-6" d="m145.86,58.91s-.25.14-.3.9c-.07-.22-.27-.7-.49-.78-.07.09-.32.07-.11-.31.1-.09.2-.07.35.1.12.15.19.25.19.25.06-.12.09-.58.34-.64.12.03.26.16.22.35-.01.1.01.23-.19.11h0Z"/>
    <path class="cls-6" d="m143.95,59.17s-.3-.22.09-.64c.16-.09.37-.11.33.25-.03.12-.06.19-.12.25.07.04.13.15-.08.23-.06.01-.12.06-.19.13s-.68.62-1.25.73c.16-.14,1.2-.84,1.2-.95h0Z"/>
    <polygon class="cls-6" points="146.48 61.84 146.9 62.11 146.69 62.65 146.25 62.39 146.48 61.84"/>
    <path class="cls-6" d="m145.76,62.3s.2-.03.14.2c-.03.12-.25.2-.28-.06,0,0-.04-.51.15-.7-.02.15-.11.58-.02.56h0Z"/>
    <path class="cls-6" d="m144.12,62.76s.03-.28-.03-.28c-.06.01-.09-.07-.22.32-.04.16-.03.25.06.26-.1.19-.25.54,0,.63.1.02.48-.07.66-.48,0,0-.38.21-.48.1-.04-.06-.06-.2.13-.35.13-.09.21-.2.1-.28-.08.06-.22.19-.24.07h0Z"/>
    <path class="cls-6" d="m141.21,60.29l.12-.22s-.48-.12-.8-.3c-.05.19-.21.49.12.74.33.24,1.06.71,1.26.8-.13.16-.53.56-1.88,1.3-.1.04-.57.04-.2-.86-.16.11-.52.7-.17,1.33.13.09.35.27,1.6-.64.28-.17.88-.5.93-1.04.03-.13.05-.49-.24-.7-.26-.13-.58-.32-.74-.4h0Z"/>
    <path class="cls-6" d="m142.13,62.58s.17.09.09.25c-.07.09-.19.14-.26-.15,0-.12.05-.36.21-.54-.02.16-.09.45-.03.44h0Z"/>
    <path class="cls-6" d="m141.03,61.4s.22.1.06.29c-.09.09-.28.09-.29-.15,0-.18.12-.42.27-.58-.03.16-.12.45-.03.44h0Z"/>
    <path class="cls-6" d="m141.94,60.02s.25-.04.13.25c-.06.1-.19.19-.29-.07-.03-.15,0-.48.2-.79-.06.19-.09.64-.03.61h0Z"/>
    <path class="cls-6" d="m143.16,59.06s.22.02.11.25c-.07.13-.29.2-.32-.15.03-.18.12-.49.24-.63-.05.13-.09.58-.03.52h0Z"/>
    <path class="cls-6" d="m140.95,58.91s.2-.17.37-.13c-.04.12-.16.26-.35.35.12.04.38.08.67-.24.09-.19.1-.38.1-.38,0,0-.26-.19-.73.04-.09.09-.08.29-.06.36h0Z"/>
    <path class="cls-6" d="m140.13,59.35l.29.16s-.33-.75-.49-1.2c-.12.17-.29.35-.23.93.07.58.4,2.76.4,2.76,0,0,.15,1.08.12,1.49.1-.15.32-.46.18-1.71-.15-1.24-.32-2.34-.27-2.44h0Z"/>
    <path class="cls-6" d="m139.19,59.34l.25.12s-.33-.75-.54-1.26c-.12.23-.24.33-.17.8.07.47.34,2.82.35,3.03-.03.23-.18.66-1.55,1.56.22.02,1.36.09,1.82-1.54,0,0,.1-.31,0-1.2-.11-.89-.19-1.45-.16-1.52h0Z"/>
    <path class="cls-6" d="m138.21,59.48s-.32.22-.26-.06.17-.67.29-.92c-.24.22-.62.85-.43,1.29.04.13.16.29.38.02.08-.09.12-.28.03-.33h0Z"/>
    <path class="cls-6" d="m136.63,59.03l.34-.06s-.78-.41-.94-.59c-.09.13-.27.39.14.85.4.46,1.89,1.86,2.21,2.15.17.2.5.72.51,1.24.02-.36.12-.92-.32-1.59-.35-.44-1.63-1.71-1.94-2h0Z"/>
    <path class="cls-6" d="m138.09,62.12s-.22.16-.24.36c0,.18.03.31-.12.26-.07-.03-.19-.2-.16-.45-.12.25-.28.67-.59.64-.1.01-.38.04-.43-.54-.16.17-.52.64-.81.56-.09,0-.39.1-.55-.85,0,0,.11-2.33-.39-3.64,0,0-.24.26-.21.55.04.23.36,1.71.33,2.42-.03.26-.04,1.31-1.89,2.23,0,0,1.33.07,1.91-1.19,0,0,.06.1.09.31.03.2.15.92.75.71.09-.03.42-.26.56-.48.13.25.4.85,1.04.05.1.12.51.37.75-.2.04-.12.15-.54-.04-.75h0Z"/>
    <path class="cls-6" d="m139.17,63.18s.16-.14.08-.23c-.09-.03-.16,0-.31.28-.03.12.04.23.14.26-.03.1-.05.29.13.12.12-.13.28-.33.35-.38.01-.06-.03-.18-.19-.02-.09.1-.24.23-.21-.03h0Z"/>
    <path class="cls-6" d="m135.95,59.78s.25.03.21-.2c-.03-.13-.25-.22-.4.24-.07-.07-.19-.32-.38-.16-.06.07-.12.31.11.31.1.03.2.21.23.46.06-.2.14-.61.22-.64h0Z"/>
    <polygon class="cls-6" points="131.8 60.64 132.01 60.26 131.6 59.93 131.78 59.43 132.22 59.71 132.08 60.11 132.42 60.47 132.19 60.96 131.8 60.64"/>
    <path class="cls-6" d="m132.09,61.45s.29-.03.17.28c-.09.12-.29.16-.35-.12,0-.18.02-.42.15-.6-.01.17-.03.48.03.44h0Z"/>
    <polygon class="cls-6" points="133.24 62.87 132.88 62.63 132.61 63.14 133.06 63.43 133.31 63.04 133.76 63.22 133.91 62.77 133.45 62.53 133.24 62.87"/>
    <path class="cls-6" d="m137.67,61.53s.19-.11.19.06c0,.12-.06.31-.24.25-.09-.03-.32-.16.05-.89-.03.17-.08.64,0,.58h0Z"/>
    <path class="cls-6" d="m133.35,58.67s-.07-.26,0-.35c.07.03.44.22.66,1-.02.15.03.38-.12.6-.01-.15,0-.58-.2-.8-.2-.22-.35-.44-.35-.44h0Z"/>
    <path class="cls-6" d="m132.76,59.24l.12-.19-.75-.63s-.34.51.17,1.04c.33.25,2.25,1.76,2.44,2.4.1-.22.37-.3-.18-.94-.39-.43-1.26-1.32-1.79-1.68h0Z"/>
    <path class="cls-6" d="m162.06,62.03s.09-.1.38-.06c-.03.1-.13.18-.19.28,0,0-.12-.15-.19-.22h0Zm1.56.47s.07-.66.29-.62c.09.03.08.23.05.38-.04.1-.05.22-.34.25h0Zm-.19.06s.17-.98.48-1.22c.09-.04.28.08.35.4.01.18.04.6-.21.95-.13.16-.37.35-.6.42-.03.18-.12.48-.12.48l-.08-.44s-.59.17-1.05-.4c0,0-.6.51-.97.59-.12,0-.41-.02-.71-.65-.1-.04-.49-.08-.69.46-.13.29-.31.7-.52.72-.13.01-.32.04-.51-.44-.06-.19-.07-.66.07-1.02.03.23.11.93.39.89.07.01.29-.03.44-.39.1-.22.65-1.23,1.06-.57.11.16.52.78,1.06.13-.04-.09-.21-.34-.64-.11-.01-.15-.16-.57.78-.85.19-.03.73-.14,1.22.07.01.15-.05.42-.05.42,0,0-.35.24-.51.49.12.09.35.28.82.08h0Z"/>
    <path class="cls-6" d="m165.66,62.67s-.21-.74.15-.77c.22.02.77.08,1.46.41-.19.09-1,.63-1.61.37h0Zm-.36-.09s0-.98.36-1.13c.1-.06.38-.26,1.27.16.28.08,1.09.33,1.53.31-.05.28-.13.54-.13.54,0,0-.35-.06-.89.27-.25.14-.57.39-1.52.64-.06.31-.13.44-.21.32-.01-.09,0-.18-.01-.26-.16-.02-.64.07-.88-1.03,0,0-.21-1.31-.24-2.53-.07-.25-.24-.67-.14-.96.1-.28.24-.45.3-.52.07.34.15.88.18,1.69.02.36.18,2.52.4,2.51h0Z"/>
    <path class="cls-6" d="m156.4,62.76s.06-.35.15-.19c.06.12.22.22.07.29-.12,0-.26.11-.22-.1h0Zm-.5.08s.27-.32.36-.58c.1-.16.37-.42.57-.04.17.32.3.53.2.73-.1.17-.22.46-.94.28-.16.06-.23.09-.72.33-.18.07-.85.27-1.15-.77-.07-.33-.1-.86-.26-3.5,0,0-.1-.03-.23.11.03-.2.03-.45.46-.75.04.35.12.99.18,2.38,0,.33-.07,1.47.32,1.83.1.12.57.53,1.21-.02h0Z"/>
    <path class="cls-6" d="m155.64,61.5s-.02-.33.17-.31c.1.05.18.13.1.22-.08.06-.21.08-.27.09h0Zm-.35.11s-.14-.93.29-.92c.18.03.65.2.88.46-.03.28-.05.6-.05.6,0,0-.78.18-1.56.56-.19.13-.84.6-1.31,1.23-.09.15-.38.42-.73.17-.12-.13-.58-.47.22-1.66-.09.25-.48.97-.01,1.2.1.03.33.03.61-.31.18-.2.46-.77,1.66-1.31h0Z"/>
    <path class="cls-6" d="m152.67,60.46s-.17-.39.09-.32c.16.05.29.09.16.25-.07.06-.1.09-.25.07h0Zm-.39.18s-.31-.88.33-1.08c.16.02.74.21.87.58,0,.15,0,.58-.43.68-.22.07-.99.31-1.11.65.35-.01,2-.17,2-.17,0,0-.02.28-.28.51-.23.07-1.65.47-2.15.77-.03.1-.18.32.65.62-.15.58-.14.61-.14.61l-.58-.21s-.6-.12-.98-1.31c0,0-.08.71-1.41,1.33-.15.09-1.11.57-1.35-.51,0,0-.08-.54.39-1.06-.05.26-.33,1.16.25,1.2,0,0,.47.06,1.13-.41.15-.12.85-.44.9-.88-.04-.2-.5-1.43-.65-1.89.19-.46.21-.48.21-.48,0,0,.23.28.8,2.18.06.23.2.83.49,1.01.09-.17.18-.51.56-.75-.23,0-.58-.02-.88,0,0,0,.03-.49.24-.76.13-.06.89-.53,1.16-.62h0Z"/>
    <path class="cls-6" d="m142.81,61.72s.05-.32.15-.27c.06.05.24.12.15.22-.09.06-.21.08-.3.05h0Zm1.37-.91s.34-.2.64,0c-.09.12-.22.1-.28.17-.07-.03-.17-.12-.36-.18h0Zm3.77-.39s-.15.03-.21.33c-.02.15,0,.32-.12.32-.09,0-.39-.08-.2-.45-.12.09-.26.27-.38.45-.07.07-.41.3-.64.07-.06-.07-.16-.28-.13-.39-.18.17-.65.61-.94.69-.09.01-.41.01-.29-.21.16-.09.41-.23.48-.24.04-.15,0-.42,0-.42,0,0-.77-.41-2-.05-.09.12-.21.55-.21.55,0,0,.63-.04.7.18-.06.1-.28.35-.51.21-.07-.09-.32-.56-.64-.53-.16.07-.49.48-.42,1.18.06.07.42.16.73-.1.09.06.19.2.1.36-.09.12-.79.85-1.82,1.09-.12.01-.73-.05-.34-1.17-.21.31-.58.78-.23,1.49.09.1.42.4,1.06.05s1.39-.79,1.53-1.26c.06-.13.12-.48.08-.64.13-.04.76-.24.89-.33.16.16.68.63,1.59-.31.13.22.39.79,1.11.07.14.15.57.47.85-.33.04-.18.1-.31-.05-.63h0Z"/>
    <path class="cls-6" d="m136.56,61.64s.02-.3.15-.28c.09.09.2.18.12.34-.1.04-.22.04-.28-.06h0Zm-.38.06s-.04-.39.45-.87c.16-.01.25-.01.42.37.11.26.29.62-.02.93-.12.01-.2.1-.7-.14-.15.14-.28.24-.35.32-.07.06-.44.24-.55-.57-.16.19-1.65,1.39-2.39-.02,0,0-.13-.18-.38.27,0,0-.21.51-.37.84-.1.14-.31.39-.61-.12-.13-.28-.3-.88.08-1.3,0,.2-.07.95.17,1.04.09.03.33.13.48-.26.1-.22.27-.9.62-1.06.09,0,.2.09.35.31.1.16.56,1.11,2.32-.36,0,.12,0,.23-.05.39.01.14.13.63.54.22h0Z"/>
  </g>
  <g>
    <path d="m165.54,45.13l2.19-.02s.39.02.42.68c.02.66,0,10.89,0,10.89,0,0,.04.59-.63.59h-1.73s-.53.15-.5-.85c.02-1.01,0-10.59,0-10.59,0,0-.09-.55.26-.7h0Z"/>
    <polygon class="cls-6" points="157.42 30.97 160.2 30.97 160.2 32 157.42 32 157.42 30.97"/>
    <polygon class="cls-6" points="158.71 26.27 160.11 30.51 157.51 30.51 158.71 26.27"/>
    <path d="m150.05,39.72s3.89,1.12,4.42,5.08h-9.23s.52-4.16,4.81-5.08h0Z"/>
    <path d="m135.21,52.19l.5-.02v-4h-1.03v8.84s.09.53-.48.55-1.77,0-1.77,0c0,0-.63.11-.61-.7.02-.81,0-10.85,0-10.85,0,0-.09-.64.7-.61.79.02,5.29-.02,5.29-.02,0,0,.74-.07.74.7v8.18s.09.66-.68.66h-2.67v-2.71h0Z"/>
    <path class="cls-6" d="m150.03,47.91s1.42.57,1.66,1.93v2.25h-3.19l.02-2.28s.07-1.3,1.51-1.9h0Zm-4.31-2.67h8.49s.66-.07.66.81v7.99s.09.88-.57.88h-14.02s-.7.13-.68-.88c.02-1.01,0-21.48,0-21.48h2.95v19.54h2.54v-6.24s-.02-.57.64-.61h0Z"/>
    <path class="cls-6" d="m159.75,52.77h-1.12v.8h-.58v.39h1.71v-.39h-.64v-.44h.64v-.36h0Zm2.14-7.64h1.86s.44.13.44.79v8.09s.15.92-.59.9-7.15,0-7.15,0c0,0-.59.02-.57-.81.02-.83,0-1.53,0-1.53,0,0-.15-.57.7-.48h.88v-19.64h2.91v19.64h1.01v-6.32s-.04-.57.52-.63h0Z"/>
    <path class="cls-1" d="m165.74,56.86v-.02c-.03-.06-.06-.18-.06-.41.02-1.01,0-10.63,0-10.63,0-.03-.01-.11,0-.2,0-.02,0-.04.01-.06l1.97-.02s.02.02.03.04c.02.04.04.11.04.24.02.66,0,10.89,0,10.89,0,0,0,.02,0,.03,0,.02,0,.05-.02.07,0,.01-.01.02-.03.03-.02.01-.07.03-.17.03h-1.76Z"/>
    <polygon class="cls-1" points="159.79 31.39 159.79 31.58 157.84 31.58 157.84 31.39 159.79 31.39"/>
    <polygon class="cls-1" points="158.06 30.09 158.74 27.67 159.54 30.09 158.06 30.09"/>
    <path class="cls-1" d="m150.03,40.15c.57.2,3.31,1.28,3.95,4.24h-8.24l.04-.14c.11-.38.3-.89.61-1.44.61-1.06,1.7-2.21,3.64-2.66h0Z"/>
    <path class="cls-1" d="m138.03,45.81s.13.06.13.26v8.2s0,.03,0,.05c0,.03,0,.06-.02.08,0,.01-.01.03-.04.05-.03.02-.09.04-.21.04h-2.26v-1.91l.5-.02v-4.81h-1.85v9.28s0,.05,0,.08c-.02.02-.04.02-.09.03-.56.02-1.78,0-1.78,0,0,0-.04,0-.05,0-.02,0-.04,0-.06-.01-.04-.06-.07-.12-.06-.27.02-.81,0-10.89,0-10.89,0,0,0-.03,0-.05,0-.02,0-.04.01-.06.02-.03.02-.03.03-.03.03-.02.1-.04.23-.04.79.02,5.37-.02,5.37-.02.06,0,.1.01.14.03h0Z"/>
    <path class="cls-2" d="m151.03,48.04c-.43-.35-.83-.51-.85-.51l-.16-.06-.16.07c-1.67.7-1.76,2.23-1.76,2.27l-.03,2.7h4.02v-2.7c-.15-.85-.65-1.41-1.07-1.76h0Zm3.42,6.01s.01.17-.02.3c-.03.12-.07.14-.13.14h-14.11s-.05,0-.06-.01c-.03-.03-.05-.04-.06-.07-.03-.06-.06-.17-.06-.37.02-.92,0-18.18,0-21.08h2.13v19.53h3.36v-6.65s.01-.07.02-.1c0-.01.02-.03.05-.05s.08-.04.18-.05h8.48s.02,0,.04,0c.02,0,.05,0,.07.02.04.03.05.05.07.07.03.05.05.14.05.3v8.01h0Z"/>
    <path class="cls-1" d="m156.52,52.49h1.33s0-19.64,0-19.64h2.09v19.51h-1.73v.8h-.6v1.22h2.55v-1.88h1.61v-6.75s0-.02,0-.04c0-.03,0-.05.02-.08.01-.03.03-.07.12-.09h1.73c.05.05.13.15.13.38v8.13s.03.2,0,.32c-.02.1-.05.13-.16.13-.73-.02-6.9,0-7.16,0-.04,0-.05-.01-.07-.02-.03-.03-.04-.04-.05-.07-.02-.05-.05-.14-.04-.29.02-.85,0-1.6,0-1.6.05-.02.12-.03.25-.02h0Z"/>
    <polygon class="cls-1" points="159.75 52.77 158.62 52.77 158.62 53.57 158.04 53.57 158.04 53.97 159.75 53.97 159.75 53.57 159.1 53.57 159.1 53.14 159.75 53.14 159.75 52.77"/>
    <polygon class="cls-6" points="139.56 30.97 142.34 30.97 142.34 32 139.56 32 139.56 30.97"/>
    <polygon class="cls-6" points="140.85 26.27 142.25 30.51 139.65 30.51 140.85 26.27"/>
    <polygon class="cls-1" points="141.93 31.39 141.93 31.58 139.98 31.58 139.98 31.39 141.93 31.39"/>
    <polygon class="cls-1" points="140.19 30.09 140.88 27.67 141.68 30.09 140.19 30.09"/>
  </g>
  <g>
    <path d="m144.07,30.24v-.22l.51-.11v1.17h-.24v-.89l-.27.06Z"/>
    <path d="m145.42,29.92c.05.02.1.05.14.09.04.04.08.08.1.13s.04.11.04.17c0,.08-.01.16-.05.22-.03.07-.07.13-.11.2l-.25.35h-.31l.26-.34s-.01,0-.02,0h-.02s-.09,0-.14-.03c-.05-.02-.09-.05-.13-.09-.04-.04-.07-.08-.09-.13-.02-.05-.04-.11-.04-.18,0-.06.01-.12.04-.17.02-.05.06-.1.1-.13s.09-.07.14-.09c.05-.02.11-.03.17-.03.06,0,.11.01.17.03Zm-.32.26s-.05.09-.05.14.02.1.05.14.09.06.15.06.11-.02.15-.06c.04-.04.05-.09.05-.14s-.02-.1-.05-.14c-.04-.04-.09-.06-.15-.06-.06,0-.11.02-.15.06Z"/>
    <path d="m145.85,30.15v-.22h.87v.22l-.56.93h-.29l.58-.93h-.61Z"/>
    <path d="m146.7,30.81v-.22l.52-.67h.31v.67h.17v.22h-.17v.27h-.24v-.27h-.59Zm.59-.67l-.34.44h.34v-.44Z"/>
    <path d="m149.4,29.69l-.93,1.64h-.23l.93-1.64h.23Z"/>
    <path d="m150.18,30.84v.24h-.34v-.24h.34Z"/>
    <path d="m150.34,30.84s0-.03,0-.06,0-.04,0-.07c0-.13.03-.23.09-.29s.15-.1.26-.1c.05,0,.1,0,.14.03.04.02.08.05.11.08s.06.08.07.12c.02.05.03.1.03.16,0,.02,0,.04,0,.07s0,.04,0,.06h.16s0-.06,0-.09c0-.03,0-.05,0-.08,0-.07,0-.13-.02-.18-.01-.05-.04-.1-.07-.15-.04-.06-.09-.1-.15-.13-.06-.03-.14-.04-.24-.04-.07,0-.14.01-.2.04s-.12.05-.16.07l-.08-.22c.08-.04.16-.07.25-.1s.17-.04.26-.04c.06,0,.12,0,.17.02.05.01.1.03.14.06.04.02.08.05.11.09.03.03.06.07.09.11.05.07.08.15.11.23.02.09.03.18.03.29,0,.03,0,.06,0,.09,0,.03,0,.06-.01.1,0,.03-.01.06-.02.09,0,.03-.01.06-.02.08h-1.22v-.24h.2Zm.2-.06s0,.04,0,.06h.26s0-.03,0-.06,0-.05,0-.07c0-.05-.01-.1-.04-.13-.02-.03-.06-.05-.11-.05s-.08.02-.11.05c-.02.03-.03.07-.03.13,0,.02,0,.05,0,.07Z"/>
    <path d="m151.77,29.93h.24v1.15h-.24v-1.15Z"/>
    <path d="m152.52,29.93h.24v.49s.04,0,.06,0c.02,0,.04,0,.06,0s.03-.01.03-.03.01-.03.02-.05c0-.02,0-.05,0-.08v-.33h.2v.34s0,.05,0,.07,0,.04,0,.06c.02,0,.04,0,.07,0,.03,0,.05-.01.07-.04.02-.02.02-.07.02-.13v-.31h.24v.37c0,.12-.03.21-.09.26-.06.06-.14.09-.24.09-.02,0-.05,0-.08,0s-.06-.02-.08-.03c-.03.02-.06.04-.1.05-.04,0-.07.01-.1.01-.03,0-.06,0-.09,0v.42h-.24v-1.15h0Z"/>
    <path d="m154.42,30.78s-.04,0-.06,0-.04,0-.05,0c-.07,0-.14,0-.2-.02-.06-.02-.11-.04-.16-.08-.04-.03-.08-.08-.1-.13-.03-.05-.04-.12-.04-.19s.01-.14.04-.2.07-.1.12-.14.11-.06.18-.08c.07-.02.15-.03.24-.03h.27v1.15h-.24v-.3h0Zm0-.24v-.38h-.09c-.09,0-.16.02-.21.05-.05.03-.07.08-.07.16,0,.07.02.11.07.14.04.03.1.04.18.04.04,0,.09,0,.13,0Z"/>
    <path d="m155.2,31.01c-.07-.05-.11-.12-.11-.22,0-.05.01-.1.03-.14.02-.04.05-.08.09-.11-.02-.04-.04-.09-.06-.13s-.02-.09-.02-.14c0-.05,0-.1.03-.15.02-.05.04-.09.08-.12.03-.03.08-.06.13-.08s.11-.03.18-.03.12,0,.18.02.11.04.17.06l-.08.21-.08-.03s-.04-.01-.06-.02c-.02,0-.04,0-.06,0-.02,0-.04,0-.07,0s-.05,0-.07,0c-.02,0-.04.02-.06.03-.02.01-.03.03-.04.05s-.01.04-.01.07c0,.03,0,.06,0,.08s.01.05.02.07c.04-.01.09-.03.13-.04l.2-.05.04.2-.27.07c-.05.01-.09.03-.13.05s-.05.05-.05.09c0,.02,0,.04.02.05s.03.02.05.03c.02,0,.04.01.07.01.02,0,.04,0,.06,0h.35v.24h-.4c-.12,0-.22-.02-.29-.07Z"/>
  </g>
</svg>